#!OML:ASF E:\pregnant2\Project 1\Capture day 1\Session 1\pregnant2.ASF
:FULLY-SPECIFIED
:DEGREES
2554
root 8.24884 17.0166 25.1949 16.1058 12.341 -12.203
lowerback -1.97754 0.841238 17.8093
upperback -13.0535 2.27893 1.09235
thorax -13.1807 -0.788583 -8.85796
lowerneck -14.3275 10.4139 15.2836
upperneck 33.9922 12.7142 -3.99334
head 15.7578 6.92776 -1.89167
rclavicle 2.71838e-014 -4.77083e-015
rhumerus -87.2246 28.1225 -107.593
rradius 76.3338
rwrist -10.8619
rhand 15.1632 -7.87892
rfingers 7.12502
rthumb 40.0053 -33.1034
lclavicle 2.71838e-014 -4.77083e-015
lhumerus -102.844 -42.239 121.912
lradius 81.7599
lwrist -0.926756
lhand 18.4417 20.7697
lfingers 7.12502
lthumb 43.0808 44.987
rfemur -15.0723 3.62724 36.8734
rtibia 3.62106
rfoot -5.08655 -21.8493
rtoes 5.17504
lfemur -36.4936 -17.476 2.054
ltibia 38.6686
lfoot -14.7532 17.9151
ltoes -21.4475
2555
root 8.23679 17.016 25.1981 15.9418 12.0309 -12.2993
lowerback -1.71741 0.901688 17.7735
upperback -13.0088 2.41219 1.12024
thorax -13.2441 -0.721857 -8.82388
lowerneck -14.3178 10.4145 15.302
upperneck 33.9904 12.7028 -3.9726
head 15.7535 6.92828 -1.88853
rclavicle 2.75317e-014 4.17448e-014
rhumerus -86.8652 28.1088 -107.522
rradius 76.4226
rwrist -11.0798
rhand 15.2592 -7.60137
rfingers 7.12502
rthumb 40.0956 -32.7985
lclavicle 2.75317e-014 4.17448e-014
lhumerus -101.952 -42.3646 121.281
lradius 81.3212
lwrist -2.87299
lhand 17.6356 19.7196
lfingers 7.12502
lthumb 42.3264 44.1993
rfemur -14.1285 3.84791 36.9627
rtibia 2.15467
rfoot -4.27309 -21.7556
rtoes 5.17157
lfemur -36.1634 -17.2523 2.02713
ltibia 38.7089
lfoot -14.8688 17.9603
ltoes -21.4405
2556
root 8.22343 17.0152 25.2015 15.8041 11.6991 -12.3989
lowerback -1.48698 0.969525 17.7039
upperback -12.9646 2.5478 1.15845
thorax -13.288 -0.647612 -8.7592
lowerneck -14.3012 10.418 15.3247
upperneck 33.9706 12.6983 -3.96303
head 15.7411 6.93055 -1.88983
rclavicle -4.91992e-015 2.74323e-014
rhumerus -86.4686 28.0998 -107.378
rradius 76.5748
rwrist -11.3491
rhand 15.4263 -7.34851
rfingers 7.12502
rthumb 40.2528 -32.4978
lclavicle -4.91992e-015 2.74323e-014
lhumerus -100.922 -42.4707 120.497
lradius 81.0532
lwrist -4.44406
lhand 17.1312 18.8163
lfingers 7.12502
lthumb 41.8538 43.4552
rfemur -12.8666 4.09618 37.0537
rtibia -4.85035e-014
rfoot -3.08615 -21.6374
rtoes 5.18095
lfemur -35.8502 -16.9973 2.01171
ltibia 38.7505
lfoot -14.9935 18.0028
ltoes -21.4302
2557
root 8.20895 17.0144 25.2054 15.7356 11.3592 -12.4916
lowerback -1.33402 1.05004 17.5943
upperback -12.9327 2.68318 1.20485
thorax -13.2982 -0.565758 -8.66113
lowerneck -14.2781 10.4233 15.3487
upperneck 33.9324 12.7007 -3.96608
head 15.7203 6.93405 -1.89578
rclavicle -5.56597e-015 6.36111e-015
rhumerus -86.0336 28.0837 -107.138
rradius 76.8004
rwrist -11.6556
rhand 15.6567 -7.12132
rfingers 7.12502
rthumb 40.4694 -32.204
lclavicle -5.56597e-015 6.36111e-015
lhumerus -99.7713 -42.5507 119.588
lradius 80.9669
lwrist -5.43958
lhand 16.9522 18.1089
lfingers 7.12502
lthumb 41.6859 42.8033
rfemur -12.7396 4.37326 37.1403
rtibia 7.55382e-014
rfoot -3.06456 -21.5714
rtoes 5.20955
lfemur -35.6036 -16.7119 2.016
ltibia 38.7892
lfoot -15.1192 18.0404
ltoes -21.4181
2558
root 8.19344 17.0137 25.2097 15.7588 11.0135 -12.5727
lowerback -1.27713 1.14881 17.4445
upperback -12.9211 2.82239 1.25477
thorax -13.272 -0.474835 -8.53424
lowerneck -14.2502 10.4294 15.3732
upperneck 33.8766 12.7066 -3.97767
head 15.6909 6.93783 -1.90506
rclavicle 1.72943e-014 4.17448e-014
rhumerus -85.5569 28.0383 -106.785
rradius 77.1018
rwrist -11.9751
rhand 15.9434 -6.92046
rfingers 7.12502
rthumb 40.7389 -31.9193
lclavicle 1.72943e-014 4.17448e-014
lhumerus -98.5376 -42.6075 118.599
lradius 81.0643
lwrist -5.70958
lhand 17.0517 17.6354
lfingers 7.12502
lthumb 41.7793 42.2989
rfemur -12.7054 4.67972 37.2127
rtibia 1.19271e-014
rfoot -3.02929 -21.5054
rtoes 5.22832
lfemur -35.447 -16.4018 2.04429
ltibia 38.8209
lfoot -15.2394 18.0831
ltoes -21.4085
2559
root 8.17701 17.0132 25.2143 15.8559 10.6609 -12.6415
lowerback -1.29346 1.26432 17.2575
upperback -12.9292 2.96861 1.30637
thorax -13.2226 -0.374991 -8.38296
lowerneck -14.2045 10.4318 15.3969
upperneck 33.7984 12.7118 -3.99793
head 15.6473 6.94027 -1.91923
rclavicle 3.32964e-014 -4.37326e-014
rhumerus -85.0441 27.9458 -106.307
rradius 77.479
rwrist -12.2812
rhand 16.2898 -6.73188
rfingers 7.12502
rthumb 41.0643 -31.6278
lclavicle 3.32964e-014 -4.37326e-014
lhumerus -97.2686 -42.6436 117.591
lradius 81.332
lwrist -5.17429
lhand 17.3909 17.4436
lfingers 7.12502
lthumb 42.0973 42.001
rfemur -12.7455 5.01136 37.2693
rtibia -1.59028e-014
rfoot -2.98344 -21.4389
rtoes 5.24711
lfemur -35.36 -16.0731 2.08796
ltibia 38.8427
lfoot -15.3503 18.1297
ltoes -21.3997
2560
root 8.15994 17.0129 25.2191 16.0065 10.3086 -12.696
lowerback -1.36783 1.39276 17.0404
upperback -12.9523 3.11996 1.35702
thorax -13.155 -0.268377 -8.2144
lowerneck -14.1419 10.4288 15.4108
upperneck 33.7008 12.7126 -4.01571
head 15.5886 6.94022 -1.9329
rclavicle -1.12313e-014 4.13472e-014
rhumerus -84.4947 27.792 -105.699
rradius 77.9255
rwrist -12.5565
rhand 16.6943 -6.54269
rfingers 7.12502
rthumb 41.444 -31.3163
lclavicle -1.12313e-014 4.13472e-014
lhumerus -95.9985 -42.6699 116.614
lradius 81.7474
lwrist -3.82968
lhand 17.804 17.558
lfingers 7.12502
lthumb 42.4841 41.9837
rfemur -12.8388 5.35468 37.309
rtibia -4.69132e-014
rfoot -2.93108 -21.3725
rtoes 5.26253
lfemur -35.3229 -15.7381 2.13819
ltibia 38.8534
lfoot -15.4556 18.1783
ltoes -21.3866
2561
root 8.14282 17.0129 25.2241 16.2056 9.9656 -12.7354
lowerback -1.49325 1.53096 16.8056
upperback -12.9919 3.27472 1.40399
thorax -13.0764 -0.158153 -8.03823
lowerneck -14.0578 10.4166 15.4095
upperneck 33.5869 12.7047 -4.02855
head 15.5142 6.93581 -1.94532
rclavicle -5.66536e-015 -1.39149e-014
rhumerus -83.9134 27.5693 -104.964
rradius 78.4319
rwrist -12.7811
rhand 17.1761 -6.34043
rfingers 7.12502
rthumb 41.8959 -30.9653
lclavicle -5.66536e-015 -1.39149e-014
lhumerus -94.7512 -42.6916 115.696
lradius 82.288
lwrist -1.75343
lhand 18.2916 18.0045
lfingers 7.12502
lthumb 42.9404 42.2715
rfemur -12.9825 5.69875 37.3303
rtibia -3.97569e-015
rfoot -2.87195 -21.305
rtoes 5.27248
lfemur -35.3348 -15.4104 2.19341
ltibia 38.8524
lfoot -15.55 18.2321
ltoes -21.3652
2562
root 8.1263 17.0131 25.229 16.4498 9.64383 -12.7564
lowerback -1.66965 1.67525 16.5652
upperback -13.0462 3.42838 1.44263
thorax -12.9863 -0.0480658 -7.86588
lowerneck -13.9565 10.3956 15.3942
upperneck 33.4617 12.6872 -4.03385
head 15.4275 6.92702 -1.95553
rclavicle -2.68359e-015 1.47101e-014
rhumerus -83.3048 27.2771 -104.116
rradius 78.9892
rwrist -12.9486
rhand 17.7269 -6.12902
rfingers 7.12502
rthumb 42.412 -30.5795
lclavicle -2.68359e-015 1.47101e-014
lhumerus -93.5282 -42.7118 114.835
lradius 82.9351
lwrist 0.898556
lhand 18.8398 18.778
lfingers 7.12502
lthumb 43.4528 42.862
rfemur -13.1756 6.02996 37.3296
rtibia 8.74653e-015
rfoot -2.81266 -21.2369
rtoes 5.28488
lfemur -35.4005 -15.0975 2.24932
ltibia 38.8407
lfoot -15.6308 18.2859
ltoes -21.3337
2563
root 8.11073 17.0134 25.2336 16.7303 9.34794 -12.7592
lowerback -1.88826 1.82097 16.326
upperback -13.1113 3.57668 1.47258
thorax -12.8865 0.0590617 -7.70129
lowerneck -13.8485 10.3692 15.364
upperneck 33.3328 12.6619 -4.02611
head 15.3342 6.91503 -1.96001
rclavicle -1.20265e-014 1.59028e-014
rhumerus -82.6762 26.9284 -103.181
rradius 79.5879
rwrist -13.0668
rhand 18.3271 -5.91903
rfingers 7.12502
rthumb 42.9736 -30.1743
lclavicle -1.20265e-014 1.59028e-014
lhumerus -92.323 -42.7295 114.015
lradius 83.6656
lwrist 3.92886
lhand 19.4206 19.8488
lfingers 7.12502
lthumb 43.995 43.7336
rfemur -13.4115 6.34091 37.3072
rtibia 4.77083e-015
rfoot -2.74992 -21.1691
rtoes 5.29598
lfemur -35.514 -14.8106 2.30425
ltibia 38.819
lfoot -15.6946 18.3449
ltoes -21.2951
